# xmcd
#
# Track frame offsets: 
#        183
#        20898
#        36648
#        53745
#        67675
#        82703
#        102138
#        122263
#        138693
#        158198
#        174795
#        190778
#
# Disc length: 2740 seconds
#
# Revision: 3
# Processed by: cddbd v1.5.2PL0 Copyright (c) Steve Scherf et al.
# Submitted via: ExactAudioCopy v0.99pb4
#
DISCID=910ab20c
DTITLE=Nicole - So wie du
DYEAR=1988
DGENRE=Schlager
TTITLE0=Nie mehr ohne Dich
TTITLE1=Wir seh'n uns eh' nie mehr
TTITLE2=Die halbe Wahrheit
TTITLE3=Laﬂ mich einfach geh'n
TTITLE4=Bleib heute nacht bei mir
TTITLE5=Andy
TTITLE6=So wie Du
TTITLE7=Mit siebzehn stirbt man nicht
TTITLE8=Gib mir noch mehr
TTITLE9=Und wenn ich liebe
TTITLE10=Ich brauch Dein Herz
TTITLE11=Einmal ich, einmal Du
EXTD=YEAR: 1988
EXTT0=
EXTT1=
EXTT2=
EXTT3=
EXTT4=
EXTT5=
EXTT6=
EXTT7=
EXTT8=
EXTT9=
EXTT10=
EXTT11=
PLAYORDER=
